<svg width="162" height="42" viewBox="0 0 162 42" fill="none" xmlns="http://www.w3.org/2000/svg">
<g clip-path="url(#clip0_529_3)">
<path d="M57.8674 40.1437L56.7722 38.9587C56.5029 39.0365 56.2066 39.0754 55.8835 39.0754C55.3029 39.0754 54.7673 38.9408 54.2765 38.6714C53.7917 38.3961 53.4057 38.0161 53.1184 37.5313C52.8371 37.0406 52.6965 36.4899 52.6965 35.8795C52.6965 35.269 52.8371 34.7214 53.1184 34.2366C53.4057 33.7519 53.7917 33.3748 54.2765 33.1055C54.7673 32.8302 55.3029 32.6925 55.8835 32.6925C56.47 32.6925 57.0056 32.8302 57.4904 33.1055C57.9812 33.3748 58.3672 33.7519 58.6485 34.2366C58.9298 34.7214 59.0704 35.269 59.0704 35.8795C59.0704 36.454 58.9447 36.9747 58.6934 37.4415C58.448 37.9024 58.1068 38.2734 57.6699 38.5547L59.1692 40.1437H57.8674ZM53.7469 35.8795C53.7469 36.3403 53.8366 36.7473 54.0162 37.1004C54.2017 37.4475 54.4561 37.7168 54.7792 37.9084C55.1024 38.0939 55.4705 38.1867 55.8835 38.1867C56.2964 38.1867 56.6645 38.0939 56.9877 37.9084C57.3109 37.7168 57.5622 37.4475 57.7418 37.1004C57.9273 36.7473 58.0201 36.3403 58.0201 35.8795C58.0201 35.4186 57.9273 35.0147 57.7418 34.6675C57.5622 34.3204 57.3109 34.0541 56.9877 33.8686C56.6645 33.683 56.2964 33.5903 55.8835 33.5903C55.4705 33.5903 55.1024 33.683 54.7792 33.8686C54.4561 34.0541 54.2017 34.3204 54.0162 34.6675C53.8366 35.0147 53.7469 35.4186 53.7469 35.8795ZM62.4199 33.4107C62.2344 33.4107 62.0788 33.3479 61.9531 33.2222C61.8274 33.0965 61.7646 32.9409 61.7646 32.7554C61.7646 32.5698 61.8274 32.4142 61.9531 32.2886C62.0788 32.1629 62.2344 32.1 62.4199 32.1C62.5995 32.1 62.7521 32.1629 62.8778 32.2886C63.0035 32.4142 63.0663 32.5698 63.0663 32.7554C63.0663 32.9409 63.0035 33.0965 62.8778 33.2222C62.7521 33.3479 62.5995 33.4107 62.4199 33.4107ZM62.9227 34.0661V39.0126H61.8992V34.0661H62.9227ZM67.0852 34.7843C67.2348 34.5329 67.4323 34.3384 67.6777 34.2007C67.9291 34.0571 68.2253 33.9853 68.5665 33.9853V35.0446H68.3061C67.9051 35.0446 67.5999 35.1463 67.3904 35.3498C67.1869 35.5533 67.0852 35.9064 67.0852 36.4091V39.0126H66.0618V34.0661H67.0852V34.7843ZM70.9615 36.5169C70.9615 36.0201 71.0633 35.5802 71.2667 35.1972C71.4762 34.8142 71.7575 34.5179 72.1106 34.3085C72.4697 34.093 72.8647 33.9853 73.2956 33.9853C73.6846 33.9853 74.0228 34.0631 74.3101 34.2187C74.6033 34.3683 74.8367 34.5568 75.0103 34.7843V34.0661H76.0427V39.0126H75.0103V38.2764C74.8367 38.5098 74.6003 38.7044 74.3011 38.86C74.0018 39.0156 73.6607 39.0934 73.2777 39.0934C72.8527 39.0934 72.4637 38.9856 72.1106 38.7702C71.7575 38.5487 71.4762 38.2435 71.2667 37.8545C71.0633 37.4595 70.9615 37.0136 70.9615 36.5169ZM75.0103 36.5348C75.0103 36.1937 74.9385 35.8974 74.7948 35.6461C74.6572 35.3947 74.4746 35.2032 74.2472 35.0715C74.0198 34.9399 73.7744 34.874 73.5111 34.874C73.2477 34.874 73.0024 34.9399 72.7749 35.0715C72.5475 35.1972 72.362 35.3857 72.2183 35.6371C72.0807 35.8825 72.0119 36.1757 72.0119 36.5169C72.0119 36.858 72.0807 37.1573 72.2183 37.4146C72.362 37.672 72.5475 37.8695 72.7749 38.0071C73.0083 38.1388 73.2537 38.2046 73.5111 38.2046C73.7744 38.2046 74.0198 38.1388 74.2472 38.0071C74.4746 37.8754 74.6572 37.6839 74.7948 37.4326C74.9385 37.1752 75.0103 36.876 75.0103 36.5348ZM79.344 32.7733H80.4571L79.5145 34.9099H78.7963L79.344 32.7733ZM82.8109 36.5169C82.8109 36.0201 82.9126 35.5802 83.1161 35.1972C83.3256 34.8142 83.6069 34.5179 83.96 34.3085C84.3191 34.093 84.7141 33.9853 85.145 33.9853C85.534 33.9853 85.8722 34.0631 86.1594 34.2187C86.4527 34.3683 86.6861 34.5568 86.8597 34.7843V34.0661H87.8921V39.0126H86.8597V38.2764C86.6861 38.5098 86.4497 38.7044 86.1505 38.86C85.8512 39.0156 85.5101 39.0934 85.127 39.0934C84.7021 39.0934 84.3131 38.9856 83.96 38.7702C83.6069 38.5487 83.3256 38.2435 83.1161 37.8545C82.9126 37.4595 82.8109 37.0136 82.8109 36.5169ZM86.8597 36.5348C86.8597 36.1937 86.7878 35.8974 86.6442 35.6461C86.5066 35.3947 86.324 35.2032 86.0966 35.0715C85.8692 34.9399 85.6238 34.874 85.3604 34.874C85.0971 34.874 84.8517 34.9399 84.6243 35.0715C84.3969 35.1972 84.2114 35.3857 84.0677 35.6371C83.9301 35.8825 83.8612 36.1757 83.8612 36.5169C83.8612 36.858 83.9301 37.1573 84.0677 37.4146C84.2114 37.672 84.3969 37.8695 84.6243 38.0071C84.8577 38.1388 85.1031 38.2046 85.3604 38.2046C85.6238 38.2046 85.8692 38.1388 86.0966 38.0071C86.324 37.8754 86.5066 37.6839 86.6442 37.4326C86.7878 37.1752 86.8597 36.876 86.8597 36.5348ZM93.5903 33.9853C93.9673 33.9853 94.3025 34.0661 94.5957 34.2277C94.895 34.3892 95.1284 34.6286 95.296 34.9458C95.4695 35.263 95.5563 35.6461 95.5563 36.0949V39.0126H94.5419V36.2476C94.5419 35.8047 94.4312 35.4665 94.2097 35.2331C93.9883 34.9937 93.686 34.874 93.303 34.874C92.92 34.874 92.6147 34.9937 92.3873 35.2331C92.1659 35.4665 92.0552 35.8047 92.0552 36.2476V39.0126H91.0317V32.3693H92.0552V34.6406C92.2287 34.4311 92.4472 34.2696 92.7105 34.1558C92.9798 34.0421 93.2731 33.9853 93.5903 33.9853ZM110.909 32.7733L109.06 39.0126H107.902L106.591 34.2905L105.2 39.0126L104.05 39.0216L102.282 32.7733H103.368L104.661 37.8545L106.061 32.7733H107.21L108.512 37.8276L109.814 32.7733H110.909ZM114.069 33.4107C113.884 33.4107 113.728 33.3479 113.603 33.2222C113.477 33.0965 113.414 32.9409 113.414 32.7554C113.414 32.5698 113.477 32.4142 113.603 32.2886C113.728 32.1629 113.884 32.1 114.069 32.1C114.249 32.1 114.402 32.1629 114.527 32.2886C114.653 32.4142 114.716 32.5698 114.716 32.7554C114.716 32.9409 114.653 33.0965 114.527 33.2222C114.402 33.3479 114.249 33.4107 114.069 33.4107ZM114.572 34.0661V39.0126H113.549V34.0661H114.572ZM118.905 34.901V37.639C118.905 37.8246 118.947 37.9592 119.031 38.043C119.121 38.1208 119.27 38.1597 119.48 38.1597H120.108V39.0126H119.3C118.839 39.0126 118.486 38.9048 118.241 38.6894C117.996 38.4739 117.873 38.1238 117.873 37.639V34.901H117.289V34.0661H117.873V32.8362H118.905V34.0661H120.108V34.901H118.905ZM125.405 33.9853C125.782 33.9853 126.118 34.0661 126.411 34.2277C126.71 34.3892 126.944 34.6286 127.111 34.9458C127.285 35.263 127.371 35.6461 127.371 36.0949V39.0126H126.357V36.2476C126.357 35.8047 126.246 35.4665 126.025 35.2331C125.803 34.9937 125.501 34.874 125.118 34.874C124.735 34.874 124.43 34.9937 124.202 35.2331C123.981 35.4665 123.87 35.8047 123.87 36.2476V39.0126H122.847V32.3693H123.87V34.6406C124.044 34.4311 124.262 34.2696 124.526 34.1558C124.795 34.0421 125.088 33.9853 125.405 33.9853ZM135.623 38.1867H137.733V39.0126H134.6V32.7733H135.623V38.1867ZM140.043 36.5169C140.043 36.0201 140.145 35.5802 140.348 35.1972C140.558 34.8142 140.839 34.5179 141.192 34.3085C141.551 34.093 141.946 33.9853 142.377 33.9853C142.766 33.9853 143.104 34.0631 143.392 34.2187C143.685 34.3683 143.918 34.5568 144.092 34.7843V34.0661H145.124V39.0126H144.092V38.2764C143.918 38.5098 143.682 38.7044 143.383 38.86C143.083 39.0156 142.742 39.0934 142.359 39.0934C141.934 39.0934 141.545 38.9856 141.192 38.7702C140.839 38.5487 140.558 38.2435 140.348 37.8545C140.145 37.4595 140.043 37.0136 140.043 36.5169ZM144.092 36.5348C144.092 36.1937 144.02 35.8974 143.876 35.6461C143.739 35.3947 143.556 35.2032 143.329 35.0715C143.101 34.9399 142.856 34.874 142.593 34.874C142.329 34.874 142.084 34.9399 141.857 35.0715C141.629 35.1972 141.444 35.3857 141.3 35.6371C141.162 35.8825 141.093 36.1757 141.093 36.5169C141.093 36.858 141.162 37.1573 141.3 37.4146C141.444 37.672 141.629 37.8695 141.857 38.0071C142.09 38.1388 142.335 38.2046 142.593 38.2046C142.856 38.2046 143.101 38.1388 143.329 38.0071C143.556 37.8754 143.739 37.6839 143.876 37.4326C144.02 37.1752 144.092 36.876 144.092 36.5348ZM148.785 33.4107C148.599 33.4107 148.444 33.3479 148.318 33.2222C148.192 33.0965 148.129 32.9409 148.129 32.7554C148.129 32.5698 148.192 32.4142 148.318 32.2886C148.444 32.1629 148.599 32.1 148.785 32.1C148.964 32.1 149.117 32.1629 149.242 32.2886C149.368 32.4142 149.431 32.5698 149.431 32.7554C149.431 32.9409 149.368 33.0965 149.242 33.2222C149.117 33.3479 148.964 33.4107 148.785 33.4107ZM149.287 34.0661V39.0126H148.264V34.0661H149.287ZM153.45 32.3693V39.0126H152.427V32.3693H153.45ZM156.248 36.5169C156.248 36.0201 156.35 35.5802 156.553 35.1972C156.763 34.8142 157.044 34.5179 157.397 34.3085C157.756 34.093 158.151 33.9853 158.582 33.9853C158.971 33.9853 159.309 34.0631 159.596 34.2187C159.89 34.3683 160.123 34.5568 160.297 34.7843V34.0661H161.329V39.0126H160.297V38.2764C160.123 38.5098 159.887 38.7044 159.587 38.86C159.288 39.0156 158.947 39.0934 158.564 39.0934C158.139 39.0934 157.75 38.9856 157.397 38.7702C157.044 38.5487 156.763 38.2435 156.553 37.8545C156.35 37.4595 156.248 37.0136 156.248 36.5169ZM160.297 36.5348C160.297 36.1937 160.225 35.8974 160.081 35.6461C159.944 35.3947 159.761 35.2032 159.534 35.0715C159.306 34.9399 159.061 34.874 158.797 34.874C158.534 34.874 158.289 34.9399 158.061 35.0715C157.834 35.1972 157.648 35.3857 157.505 35.6371C157.367 35.8825 157.298 36.1757 157.298 36.5169C157.298 36.858 157.367 37.1573 157.505 37.4146C157.648 37.672 157.834 37.8695 158.061 38.0071C158.295 38.1388 158.54 38.2046 158.797 38.2046C159.061 38.2046 159.306 38.1388 159.534 38.0071C159.761 37.8754 159.944 37.6839 160.081 37.4326C160.225 37.1752 160.297 36.876 160.297 36.5348Z" fill="white"/>
<circle cx="62.5757" cy="13.4044" r="11.3251" stroke="#A259FF" stroke-width="4.15873"/>
<line x1="77.3038" y1="24.7811" x2="62.3813" y2="24.7811" stroke="#A259FF" stroke-width="4.06088"/>
<path d="M91.2891 11.8202C90.6852 11.8202 90.1792 11.6324 89.7711 11.257C89.3794 10.8653 89.1835 10.3838 89.1835 9.81249C89.1835 9.24121 89.3794 8.76786 89.7711 8.39244C90.1792 8.0007 90.6852 7.80484 91.2891 7.80484C91.8931 7.80484 92.3909 8.0007 92.7826 8.39244C93.1907 8.76786 93.3947 9.24121 93.3947 9.81249C93.3947 10.3838 93.1907 10.8653 92.7826 11.257C92.3909 11.6324 91.8931 11.8202 91.2891 11.8202ZM92.9785 13.4361V27H89.5508V13.4361H92.9785ZM107.872 15.5417C108.313 14.8235 108.884 14.2604 109.586 13.8523C110.304 13.4442 111.121 13.2402 112.035 13.2402V16.8393H111.129C110.051 16.8393 109.235 17.0923 108.68 17.5983C108.142 18.1043 107.872 18.9857 107.872 20.2425V27H104.445V13.4361H107.872V15.5417ZM121.542 20.1691C121.542 18.798 121.811 17.582 122.349 16.521C122.904 15.46 123.647 14.6439 124.577 14.0726C125.524 13.5014 126.577 13.2157 127.736 13.2157C128.748 13.2157 129.629 13.4197 130.38 13.8278C131.147 14.2359 131.759 14.75 132.216 15.3703V13.4361H135.669V27H132.216V25.0168C131.776 25.6534 131.164 26.1839 130.38 26.6083C129.613 27.0163 128.723 27.2204 127.711 27.2204C126.569 27.2204 125.524 26.9265 124.577 26.3389C123.647 25.7513 122.904 24.9271 122.349 23.8661C121.811 22.7888 121.542 21.5565 121.542 20.1691ZM132.216 20.218C132.216 19.3856 132.053 18.6756 131.727 18.088C131.4 17.484 130.96 17.027 130.405 16.7169C129.85 16.3904 129.254 16.2272 128.617 16.2272C127.981 16.2272 127.393 16.3823 126.854 16.6924C126.316 17.0025 125.875 17.4595 125.532 18.0635C125.206 18.6511 125.043 19.3529 125.043 20.1691C125.043 20.9852 125.206 21.7034 125.532 22.3236C125.875 22.9276 126.316 23.3927 126.854 23.7192C127.409 24.0456 127.997 24.2089 128.617 24.2089C129.254 24.2089 129.85 24.0538 130.405 23.7437C130.96 23.4172 131.4 22.9602 131.727 22.3726C132.053 21.7687 132.216 21.0505 132.216 20.218ZM146.215 20.1691C146.215 18.798 146.484 17.582 147.022 16.521C147.577 15.46 148.32 14.6439 149.25 14.0726C150.197 13.5014 151.25 13.2157 152.409 13.2157C153.421 13.2157 154.302 13.4197 155.053 13.8278C155.82 14.2359 156.432 14.75 156.889 15.3703V13.4361H160.342V27H156.889V25.0168C156.449 25.6534 155.837 26.1839 155.053 26.6083C154.286 27.0163 153.396 27.2204 152.384 27.2204C151.242 27.2204 150.197 26.9265 149.25 26.3389C148.32 25.7513 147.577 24.9271 147.022 23.8661C146.484 22.7888 146.215 21.5565 146.215 20.1691ZM156.889 20.218C156.889 19.3856 156.726 18.6756 156.4 18.088C156.073 17.484 155.633 17.027 155.078 16.7169C154.523 16.3904 153.927 16.2272 153.29 16.2272C152.654 16.2272 152.066 16.3823 151.527 16.6924C150.989 17.0025 150.548 17.4595 150.205 18.0635C149.879 18.6511 149.716 19.3529 149.716 20.1691C149.716 20.9852 149.879 21.7034 150.205 22.3236C150.548 22.9276 150.989 23.3927 151.527 23.7192C152.082 24.0456 152.67 24.2089 153.29 24.2089C153.927 24.2089 154.523 24.0538 155.078 23.7437C155.633 23.4172 156.073 22.9602 156.4 22.3726C156.726 21.7687 156.889 21.0505 156.889 20.218Z" fill="#A259FF"/>
<g clip-path="url(#clip1_529_3)">
<rect x="1.46465" y="1.46465" width="38.0808" height="38.0808" stroke="white" stroke-width="2.92929"/>
<mask id="mask0_529_3" style="mask-type:alpha" maskUnits="userSpaceOnUse" x="0" y="0" width="42" height="41">
<rect x="1.46465" y="1.46465" width="38.0808" height="38.0518" stroke="white" stroke-width="2.92929"/>
</mask>
<g mask="url(#mask0_529_3)">
<rect x="-2.8089" y="-2.67267" width="23.5948" height="47.2173" fill="#A259FF"/>
</g>
<circle cx="20.0726" cy="22.5133" r="7.88331" stroke="#A259FF" stroke-width="2.93618"/>
<line x1="30.3475" y1="30.4671" x2="19.937" y2="30.4671" stroke="#A259FF" stroke-width="2.86709"/>
<circle cx="15.5252" cy="9.25656" r="2.0505" fill="#A259FF"/>
<circle cx="25.4848" cy="9.25656" r="2.0505" fill="#A259FF"/>
</g>
</g>
<defs>
<clipPath id="clip0_529_3">
<rect width="162" height="41.0101" fill="white"/>
</clipPath>
<clipPath id="clip1_529_3">
<rect width="41.0101" height="41.0101" fill="white"/>
</clipPath>
</defs>
</svg>
